<?xml version="1.0" encoding="UTF-8"?>
<svg width="13px" height="13px" viewBox="0 0 13 13" version="1.1" xmlns="http://www.w3.org/2000/svg" xmlns:xlink="http://www.w3.org/1999/xlink">
    <!-- Generator: Sketch 52 (66869) - http://www.bohemiancoding.com/sketch -->
    <title>Shape</title>
    <desc>Created with Sketch.</desc>
    <g id="Page-1" stroke="none" stroke-width="1" fill="none" fill-rule="evenodd">
        <g id="Filter" transform="translate(-1131.000000, -151.000000)" fill="#0ABAED" fill-rule="nonzero">
            <path d="M1143.80234,162.84094 L1140.59762,159.623003 C1141.42161,158.677316 1141.87308,157.487449 1141.87308,156.248745 C1141.87308,153.354633 1139.4342,151 1136.43654,151 C1133.43888,151 1131,153.354633 1131,156.248745 C1131,159.142857 1133.43888,161.49749 1136.43654,161.49749 C1137.5619,161.49749 1138.63432,161.169785 1139.55121,160.547695 L1142.78027,163.79005 C1142.91524,163.925377 1143.09678,164 1143.29131,164 C1143.47544,164 1143.65012,163.932223 1143.78272,163.808991 C1144.06448,163.547239 1144.07346,163.11319 1143.80234,162.84094 Z M1136.43654,152.369238 C1138.65229,152.369238 1140.45485,154.109539 1140.45485,156.248745 C1140.45485,158.387951 1138.65229,160.128252 1136.43654,160.128252 C1134.2208,160.128252 1132.41823,158.387951 1132.41823,156.248745 C1132.41823,154.109539 1134.2208,152.369238 1136.43654,152.369238 Z" id="Shape"></path>
        </g>
    </g>
</svg>
